<svg xmlns="http://www.w3.org/2000/svg" viewBox="0 0 960 540"><rect width="960" height="540" fill="#5e695e"/><path d="M0 290h960v250H0z" fill="#77705f"/><path d="M236 90h486l80 210H148z" fill="#897f63"/><rect x="274" y="124" width="412" height="92" fill="#c1b27b" opacity=".65"/><path d="M102 410c139-88 288-125 448-111 114 10 214 46 308 106" fill="none" stroke="#c8c4aa" stroke-width="72" stroke-linecap="round"/><path d="M118 410c139-88 288-125 448-111 114 10 214 46 308 106" fill="none" stroke="#817d70" stroke-width="48" stroke-linecap="round"/><g fill="#232c2b"><circle cx="240" cy="345" r="11"/><rect x="233" y="357" width="15" height="35" rx="7"/><circle cx="349" cy="331" r="12"/><rect x="341" y="343" width="17" height="38" rx="8"/><circle cx="512" cy="336" r="12"/><rect x="504" y="348" width="17" height="41" rx="8"/><circle cx="714" cy="382" r="11"/><rect x="707" y="394" width="16" height="35" rx="7"/></g><rect width="960" height="540" fill="#0c1815" opacity=".12"/></svg>
