<svg xmlns="http://www.w3.org/2000/svg" viewBox="0 0 960 540"><rect width="960" height="540" fill="#42564e"/><path d="M0 300h960v240H0z" fill="#6d6e61"/><rect x="100" y="110" width="140" height="110" fill="#747268"/><rect x="300" y="90" width="180" height="130" fill="#77796b"/><rect x="710" y="120" width="150" height="110" fill="#646961"/><path d="M60 390c150-42 300-50 445-25 120 21 240 16 390-12" fill="none" stroke="#c7c5ad" stroke-width="58" stroke-linecap="round"/><path d="M70 390c150-42 300-50 445-25 120 21 240 16 390-12" fill="none" stroke="#7f8275" stroke-width="36" stroke-linecap="round"/><g fill="#222b29"><circle cx="320" cy="345" r="12"/><rect x="312" y="357" width="17" height="42" rx="8"/><circle cx="575" cy="340" r="12"/><rect x="567" y="352" width="17" height="42" rx="8"/><circle cx="690" cy="333" r="12"/><rect x="682" y="345" width="17" height="44" rx="8"/></g><rect width="960" height="540" fill="#081413" opacity=".16"/></svg>
